<!--?xml version="1.0" standalone="no"?-->
              <svg id="sw-js-blob-svg" viewBox="0 0 100 100" xmlns="http://www.w3.org/2000/svg" version="1.1">
                    <defs> 
                        <linearGradient id="sw-gradient" x1="0" x2="1" y1="1" y2="0">
                            <stop id="stop1" stop-color="rgba(52, 144, 220, 1)" offset="0%"></stop>
                            <stop id="stop2" stop-color="rgba(149, 97, 226, 1)" offset="100%"></stop>
                        </linearGradient>
                    </defs>
                <path fill="url(#sw-gradient)" d="M13.1,-21.7C18.2,-19.7,24.4,-18.7,30.5,-15.2C36.5,-11.8,42.4,-5.9,41,-0.8C39.5,4.2,30.8,8.5,24.7,11.9C18.7,15.4,15.3,18,11.6,21.4C8,24.8,4,29,-1.4,31.4C-6.8,33.9,-13.6,34.6,-18.1,31.7C-22.7,28.8,-24.9,22.2,-27.6,16.4C-30.3,10.5,-33.3,5.2,-35.9,-1.5C-38.5,-8.3,-40.7,-16.5,-36.6,-19.8C-32.4,-23.1,-21.9,-21.4,-14.8,-22.3C-7.6,-23.2,-3.8,-26.7,0.1,-26.8C4,-27,7.9,-23.8,13.1,-21.7Z" width="100%" height="100%" transform="translate(50 50)" stroke-width="0" style="transition: all 0.3s ease 0s;" stroke="url(#sw-gradient)"></path>
              </svg>