<!--?xml version="1.0" standalone="no"?-->
              <svg id="sw-js-blob-svg" viewBox="0 0 100 100" xmlns="http://www.w3.org/2000/svg" version="1.1">
                    <defs> 
                        <linearGradient id="sw-gradient" x1="0" x2="1" y1="1" y2="0">
                            <stop id="stop1" stop-color="rgba(149, 97, 226, 1)" offset="0%"></stop>
                            <stop id="stop2" stop-color="rgba(52, 144, 220, 1)" offset="100%"></stop>
                        </linearGradient>
                    </defs>
                <path fill="url(#sw-gradient)" d="M29.4,-32.1C37.6,-28.2,43.2,-18.4,42.3,-9.5C41.4,-0.6,34,7.4,27.2,12.5C20.4,17.6,14.2,19.8,7.9,22.5C1.5,25.2,-5,28.3,-11.3,27.6C-17.7,26.8,-24,22.1,-27,16C-30,9.9,-29.7,2.4,-28.8,-5.5C-28,-13.4,-26.5,-21.6,-21.6,-26.1C-16.7,-30.5,-8.4,-31,1.1,-32.4C10.6,-33.8,21.3,-35.9,29.4,-32.1Z" width="100%" height="100%" transform="translate(50 50)" stroke-width="0" style="transition: all 0.3s ease 0s;" stroke="url(#sw-gradient)"></path>
              </svg>