<!--?xml version="1.0" standalone="no"?-->
              <svg id="sw-js-blob-svg" viewBox="0 0 100 100" xmlns="http://www.w3.org/2000/svg" version="1.1">
                    <defs> 
                        <linearGradient id="sw-gradient" x1="0" x2="1" y1="1" y2="0">
                            <stop id="stop1" stop-color="rgba(52, 144, 220, 1)" offset="0%"></stop>
                            <stop id="stop2" stop-color="rgba(149, 97, 226, 1)" offset="100%"></stop>
                        </linearGradient>
                    </defs>
                <path fill="url(#sw-gradient)" d="M15.3,-28.4C18.5,-24.6,18.9,-17.9,19.8,-12.7C20.6,-7.4,21.9,-3.7,22.8,0.5C23.6,4.7,23.9,9.3,22.1,12.8C20.2,16.3,16.1,18.6,12.1,21.6C8,24.6,4,28.4,-0.9,30C-5.9,31.6,-11.7,31,-14.9,27.5C-18.1,24,-18.6,17.5,-20,12.4C-21.3,7.4,-23.5,3.7,-24.3,-0.5C-25.1,-4.6,-24.4,-9.2,-22.3,-12.8C-20.1,-16.4,-16.3,-19.1,-12.3,-22.4C-8.4,-25.8,-4.2,-29.8,0.9,-31.4C6,-33,12,-32.2,15.3,-28.4Z" width="100%" height="100%" transform="translate(50 50)" stroke-width="0" style="transition: all 0.3s ease 0s;" stroke="url(#sw-gradient)"></path>
              </svg>